<svg width="8" height="9" viewBox="0 0 8 9" fill="none" xmlns="http://www.w3.org/2000/svg">
<path d="M6.63566 0.732849L7.88078 1.88934L6.93159 2.77135L5.68647 1.61486L6.63566 0.732849ZM2.0752 6.12517H3.32032L6.34472 3.31606L5.0996 2.15957L2.0752 4.96868V6.12517Z" fill="#4B332F"/>
<path d="M6.64064 7.28165H2.14078C2.12998 7.28165 2.11878 7.2855 2.10799 7.2855C2.09429 7.2855 2.0806 7.28203 2.06648 7.28165H0.83008V1.8847H3.67186L4.50194 1.11371H0.83008C0.372291 1.11371 0 1.45911 0 1.8847V7.28165C0 7.70724 0.372291 8.05264 0.83008 8.05264H6.64064C6.86079 8.05264 7.07192 7.97141 7.22759 7.82682C7.38326 7.68223 7.47072 7.48613 7.47072 7.28165V3.94017L6.64064 4.71116V7.28165Z" fill="#4B332F"/>
</svg>
